<?xml version="1.0" encoding="UTF-8" standalone="no"?>
<!DOCTYPE svg PUBLIC "-//W3C//DTD SVG 1.1//EN"
 "http://www.w3.org/Graphics/SVG/1.1/DTD/svg11.dtd">
<!-- Generated by graphviz version 15.1.0 (20260618.0150)
 -->
<!-- Title: LithoAutoPiRunOverview Pages: 1 -->
<svg width="798pt" height="1080pt"
 viewBox="0.00 0.00 798.00 1080.00" xmlns="http://www.w3.org/2000/svg" xmlns:xlink="http://www.w3.org/1999/xlink">
<g id="graph0" class="graph" transform="scale(1 1) rotate(0) translate(18 1062.4)">
<title>LithoAutoPiRunOverview</title>
<polygon fill="white" stroke="none" points="-18,18 -18,-1062.4 780,-1062.4 780,18 -18,18"/>
<text xml:space="preserve" text-anchor="middle" x="381" y="-1026.15" font-family="Microsoft YaHei" font-size="15.00">LithoAutoPiRun 端到端主流程</text>
<g id="clust1" class="cluster">
<title>cluster_pilot</title>
<polygon fill="white" stroke="black" points="8,-8 8,-1007.4 374,-1007.4 374,-8 8,-8"/>
<text xml:space="preserve" text-anchor="middle" x="191" y="-989.15" font-family="Microsoft YaHei" font-size="15.00">链路 A：Pilot 生成与派工</text>
</g>
<g id="clust5" class="cluster">
<title>cluster_foup</title>
<polygon fill="white" stroke="black" points="382,-362.8 382,-1007.4 754,-1007.4 754,-362.8 382,-362.8"/>
<text xml:space="preserve" text-anchor="middle" x="568" y="-989.15" font-family="Microsoft YaHei" font-size="15.00">链路 B：Transfer FOUP 与临时卡控</text>
</g>
<!-- a_start -->
<g id="node1" class="node">
<title>a_start</title>
<polygon fill="none" stroke="black" points="180.64,-960.4 83.36,-960.4 83.36,-924.4 180.64,-924.4 180.64,-960.4"/>
<text xml:space="preserve" text-anchor="middle" x="132" y="-939.45" font-family="Microsoft YaHei" font-size="11.00">触发 Pilot 计算</text>
</g>
<!-- a_rtd -->
<g id="node2" class="node">
<title>a_rtd</title>
<polygon fill="none" stroke="black" points="191.14,-877.4 72.86,-877.4 72.86,-841.4 191.14,-841.4 191.14,-877.4"/>
<text xml:space="preserve" text-anchor="middle" x="132" y="-856.45" font-family="Microsoft YaHei" font-size="11.00">RTD 筛选最佳 Pilot</text>
</g>
<!-- a_start&#45;&gt;a_rtd -->
<g id="edge1" class="edge">
<title>a_start:s&#45;&gt;a_rtd:n</title>
<path fill="none" stroke="black" d="M132,-924.4C132,-924.4 132,-885.91 132,-885.91"/>
<polygon fill="black" stroke="black" points="134.45,-885.91 132,-878.91 129.55,-885.91 134.45,-885.91"/>
</g>
<!-- a_found -->
<g id="node3" class="node">
<title>a_found</title>
<polygon fill="none" stroke="black" points="132,-794.4 26.46,-765 132,-735.6 237.54,-765 132,-794.4"/>
<text xml:space="preserve" text-anchor="middle" x="132" y="-762.05" font-family="Microsoft YaHei" font-size="11.00">存在可用 Pilot？</text>
</g>
<!-- a_rtd&#45;&gt;a_found -->
<g id="edge2" class="edge">
<title>a_rtd:s&#45;&gt;a_found:n</title>
<path fill="none" stroke="black" d="M132,-841.4C132,-841.4 132,-803.2 132,-803.2"/>
<polygon fill="black" stroke="black" points="134.45,-803.2 132,-796.2 129.55,-803.2 134.45,-803.2"/>
</g>
<!-- a_wait -->
<g id="node4" class="node">
<title>a_wait</title>
<polygon fill="none" stroke="black" points="351.64,-783 272.36,-783 272.36,-747 351.64,-747 351.64,-783"/>
<text xml:space="preserve" text-anchor="middle" x="312" y="-762.05" font-family="Microsoft YaHei" font-size="11.00">等待下一轮</text>
</g>
<!-- a_found&#45;&gt;a_wait -->
<g id="edge3" class="edge">
<title>a_found:e&#45;&gt;a_wait:w</title>
<path fill="none" stroke="black" d="M239.35,-765C239.35,-765 263.84,-765 263.84,-765"/>
<polygon fill="black" stroke="black" points="263.84,-767.45 270.84,-765 263.84,-762.55 263.84,-767.45"/>
<text xml:space="preserve" text-anchor="middle" x="246.72" y="-769.75" font-family="Microsoft YaHei" font-size="10.00">否</text>
</g>
<!-- a_report -->
<g id="node5" class="node">
<title>a_report</title>
<polygon fill="none" stroke="black" points="186.02,-688.6 75.98,-688.6 75.98,-652.6 186.02,-652.6 186.02,-688.6"/>
<text xml:space="preserve" text-anchor="middle" x="131" y="-667.65" font-family="Microsoft YaHei" font-size="11.00">输出 Pilot Report</text>
</g>
<!-- a_found&#45;&gt;a_report -->
<g id="edge4" class="edge">
<title>a_found:s&#45;&gt;a_report:n</title>
<path fill="none" stroke="black" d="M131,-735.31C131,-735.31 131,-697.11 131,-697.11"/>
<polygon fill="black" stroke="black" points="133.45,-697.11 131,-690.11 128.55,-697.11 133.45,-697.11"/>
<text xml:space="preserve" text-anchor="middle" x="126.12" y="-720.96" font-family="Microsoft YaHei" font-size="10.00">是</text>
</g>
<!-- a_ama -->
<g id="node6" class="node">
<title>a_ama</title>
<polygon fill="none" stroke="black" points="186.14,-605.6 73.86,-605.6 73.86,-569.6 186.14,-569.6 186.14,-605.6"/>
<text xml:space="preserve" text-anchor="middle" x="130" y="-584.65" font-family="Microsoft YaHei" font-size="11.00">AMA 读取 Report</text>
</g>
<!-- a_report&#45;&gt;a_ama -->
<g id="edge5" class="edge">
<title>a_report:s&#45;&gt;a_ama:n</title>
<path fill="none" stroke="black" d="M131,-652.6C131,-652.6 131,-614.11 131,-614.11"/>
<polygon fill="black" stroke="black" points="133.45,-614.11 131,-607.11 128.55,-614.11 133.45,-614.11"/>
</g>
<!-- a_split -->
<g id="node7" class="node">
<title>a_split</title>
<polygon fill="none" stroke="black" points="128,-522.6 26.21,-493.2 128,-463.8 229.79,-493.2 128,-522.6"/>
<text xml:space="preserve" text-anchor="middle" x="128" y="-490.25" font-family="Microsoft YaHei" font-size="11.00">需要物理分批？</text>
</g>
<!-- a_ama&#45;&gt;a_split -->
<g id="edge6" class="edge">
<title>a_ama:s&#45;&gt;a_split:n</title>
<path fill="none" stroke="black" d="M130,-569.6C130,-569.6 130,-531.32 130,-531.32"/>
<polygon fill="black" stroke="black" points="132.45,-531.32 130,-524.32 127.55,-531.32 132.45,-531.32"/>
</g>
<!-- a_whole -->
<g id="node8" class="node">
<title>a_whole</title>
<polygon fill="none" stroke="black" points="356.14,-511.2 261.86,-511.2 261.86,-475.2 356.14,-475.2 356.14,-511.2"/>
<text xml:space="preserve" text-anchor="middle" x="309" y="-490.25" font-family="Microsoft YaHei" font-size="11.00">整批设为 Pilot</text>
</g>
<!-- a_split&#45;&gt;a_whole -->
<g id="edge7" class="edge">
<title>a_split:e&#45;&gt;a_whole:w</title>
<path fill="none" stroke="black" d="M231.53,-493C231.53,-493 253.34,-493 253.34,-493"/>
<polygon fill="black" stroke="black" points="253.34,-495.45 260.34,-493 253.34,-490.55 253.34,-495.45"/>
<text xml:space="preserve" text-anchor="middle" x="237.56" y="-497.75" font-family="Microsoft YaHei" font-size="10.00">否</text>
</g>
<!-- a_phy -->
<g id="node9" class="node">
<title>a_phy</title>
<polygon fill="none" stroke="black" points="190.15,-416.8 65.85,-416.8 65.85,-380.8 190.15,-380.8 190.15,-416.8"/>
<text xml:space="preserve" text-anchor="middle" x="128" y="-395.85" font-family="Microsoft YaHei" font-size="11.00">执行物理分批子流程</text>
</g>
<!-- a_split&#45;&gt;a_phy -->
<g id="edge8" class="edge">
<title>a_split:s&#45;&gt;a_phy:n</title>
<path fill="none" stroke="black" d="M128,-463.59C128,-463.59 128,-425.31 128,-425.31"/>
<polygon fill="black" stroke="black" points="130.45,-425.31 128,-418.31 125.55,-425.31 130.45,-425.31"/>
<text xml:space="preserve" text-anchor="middle" x="123.12" y="-449.2" font-family="Microsoft YaHei" font-size="10.00">是</text>
</g>
<!-- a_whole_r2r -->
<g id="node10" class="node">
<title>a_whole_r2r</title>
<polygon fill="none" stroke="black" points="352.02,-416.8 229.98,-416.8 229.98,-380.8 352.02,-380.8 352.02,-416.8"/>
<text xml:space="preserve" text-anchor="middle" x="291" y="-395.85" font-family="Microsoft YaHei" font-size="11.00">整批 Pilot 传给 R2R</text>
</g>
<!-- a_whole&#45;&gt;a_whole_r2r -->
<g id="edge9" class="edge">
<title>a_whole:s&#45;&gt;a_whole_r2r:n</title>
<path fill="none" stroke="black" d="M306.94,-475.2C306.94,-475.2 306.94,-425.31 306.94,-425.31"/>
<polygon fill="black" stroke="black" points="309.39,-425.31 306.94,-418.31 304.49,-425.31 309.39,-425.31"/>
</g>
<!-- a_phy_r2r -->
<g id="node12" class="node">
<title>a_phy_r2r</title>
<polygon fill="none" stroke="black" points="188.02,-333.8 65.98,-333.8 65.98,-297.8 188.02,-297.8 188.02,-333.8"/>
<text xml:space="preserve" text-anchor="middle" x="127" y="-312.85" font-family="Microsoft YaHei" font-size="11.00">子批 Pilot 传给 R2R</text>
</g>
<!-- a_phy&#45;&gt;a_phy_r2r -->
<g id="edge11" class="edge">
<title>a_phy:s&#45;&gt;a_phy_r2r:n</title>
<path fill="none" stroke="black" d="M127,-380.8C127,-380.8 127,-342.31 127,-342.31"/>
<polygon fill="black" stroke="black" points="129.45,-342.31 127,-335.31 124.55,-342.31 129.45,-342.31"/>
</g>
<!-- a_whole_control -->
<g id="node11" class="node">
<title>a_whole_control</title>
<polygon fill="none" stroke="black" points="355.77,-333.8 220.23,-333.8 220.23,-297.8 355.77,-297.8 355.77,-333.8"/>
<text xml:space="preserve" text-anchor="middle" x="288" y="-312.85" font-family="Microsoft YaHei" font-size="11.00">执行卡控并按结果处理</text>
</g>
<!-- a_whole_r2r&#45;&gt;a_whole_control -->
<g id="edge10" class="edge">
<title>a_whole_r2r:s&#45;&gt;a_whole_control:n</title>
<path fill="none" stroke="black" d="M291,-380.8C291,-380.8 291,-342.31 291,-342.31"/>
<polygon fill="black" stroke="black" points="293.45,-342.31 291,-335.31 288.55,-342.31 293.45,-342.31"/>
</g>
<!-- a_phy_control -->
<g id="node13" class="node">
<title>a_phy_control</title>
<polygon fill="none" stroke="black" points="195.14,-250.8 58.86,-250.8 58.86,-214.8 195.14,-214.8 195.14,-250.8"/>
<text xml:space="preserve" text-anchor="middle" x="127" y="-229.85" font-family="Microsoft YaHei" font-size="11.00">执行 Rule/Assign 卡控</text>
</g>
<!-- a_phy_r2r&#45;&gt;a_phy_control -->
<g id="edge12" class="edge">
<title>a_phy_r2r:s&#45;&gt;a_phy_control:n</title>
<path fill="none" stroke="black" d="M127,-297.8C127,-297.8 127,-259.31 127,-259.31"/>
<polygon fill="black" stroke="black" points="129.45,-259.31 127,-252.31 124.55,-259.31 129.45,-259.31"/>
</g>
<!-- a_phy_allow -->
<g id="node14" class="node">
<title>a_phy_allow</title>
<polygon fill="none" stroke="black" points="128,-167.8 26.21,-138.4 128,-109 229.79,-138.4 128,-167.8"/>
<text xml:space="preserve" text-anchor="middle" x="128" y="-135.45" font-family="Microsoft YaHei" font-size="11.00">允许继续作业？</text>
</g>
<!-- a_phy_control&#45;&gt;a_phy_allow -->
<g id="edge13" class="edge">
<title>a_phy_control:s&#45;&gt;a_phy_allow:n</title>
<path fill="none" stroke="black" d="M127,-214.8C127,-214.8 127,-176.52 127,-176.52"/>
<polygon fill="black" stroke="black" points="129.45,-176.52 127,-169.52 124.55,-176.52 129.45,-176.52"/>
</g>
<!-- a_phy_hold -->
<g id="node15" class="node">
<title>a_phy_hold</title>
<polygon fill="none" stroke="black" points="354.27,-156.4 263.73,-156.4 263.73,-120.4 354.27,-120.4 354.27,-156.4"/>
<text xml:space="preserve" text-anchor="middle" x="309" y="-135.45" font-family="Microsoft YaHei" font-size="11.00">子批保持卡控</text>
</g>
<!-- a_phy_allow&#45;&gt;a_phy_hold -->
<g id="edge14" class="edge">
<title>a_phy_allow:e&#45;&gt;a_phy_hold:w</title>
<path fill="none" stroke="black" d="M231.53,-138C231.53,-138 255.22,-138 255.22,-138"/>
<polygon fill="black" stroke="black" points="255.22,-140.45 262.22,-138 255.22,-135.55 255.22,-140.45"/>
<text xml:space="preserve" text-anchor="middle" x="238.5" y="-142.75" font-family="Microsoft YaHei" font-size="10.00">否</text>
</g>
<!-- a_phy_end -->
<g id="node16" class="node">
<title>a_phy_end</title>
<polygon fill="none" stroke="black" points="178.89,-62 77.11,-62 77.11,-26 178.89,-26 178.89,-62"/>
<text xml:space="preserve" text-anchor="middle" x="128" y="-41.05" font-family="Microsoft YaHei" font-size="11.00">子批进入 PiRun</text>
</g>
<!-- a_phy_allow&#45;&gt;a_phy_end -->
<g id="edge15" class="edge">
<title>a_phy_allow:s&#45;&gt;a_phy_end:n</title>
<path fill="none" stroke="black" d="M128,-108.79C128,-108.79 128,-70.51 128,-70.51"/>
<polygon fill="black" stroke="black" points="130.45,-70.51 128,-63.51 125.55,-70.51 130.45,-70.51"/>
<text xml:space="preserve" text-anchor="middle" x="123.12" y="-94.4" font-family="Microsoft YaHei" font-size="10.00">是</text>
</g>
<!-- b_start -->
<g id="node17" class="node">
<title>b_start</title>
<polygon fill="none" stroke="black" points="580.89,-960.4 455.11,-960.4 455.11,-924.4 580.89,-924.4 580.89,-960.4"/>
<text xml:space="preserve" text-anchor="middle" x="518" y="-939.45" font-family="Microsoft YaHei" font-size="11.00">WatchDog 周期触发</text>
</g>
<!-- b_report -->
<g id="node18" class="node">
<title>b_report</title>
<polygon fill="none" stroke="black" points="597.39,-877.4 438.61,-877.4 438.61,-841.4 597.39,-841.4 597.39,-877.4"/>
<text xml:space="preserve" text-anchor="middle" x="518" y="-856.45" font-family="Microsoft YaHei" font-size="11.00">生成 TransferFOUP Report</text>
</g>
<!-- b_start&#45;&gt;b_report -->
<g id="edge16" class="edge">
<title>b_start:s&#45;&gt;b_report:n</title>
<path fill="none" stroke="black" d="M518,-924.4C518,-924.4 518,-885.91 518,-885.91"/>
<polygon fill="black" stroke="black" points="520.45,-885.91 518,-878.91 515.55,-885.91 520.45,-885.91"/>
</g>
<!-- b_has -->
<g id="node19" class="node">
<title>b_has</title>
<polygon fill="none" stroke="black" points="518,-794.4 399.71,-765 518,-735.6 636.29,-765 518,-794.4"/>
<text xml:space="preserve" text-anchor="middle" x="518" y="-762.05" font-family="Microsoft YaHei" font-size="11.00">存在待转 Carrier？</text>
</g>
<!-- b_report&#45;&gt;b_has -->
<g id="edge17" class="edge">
<title>b_report:s&#45;&gt;b_has:n</title>
<path fill="none" stroke="black" d="M518,-841.4C518,-841.4 518,-803.11 518,-803.11"/>
<polygon fill="black" stroke="black" points="520.45,-803.11 518,-796.11 515.55,-803.11 520.45,-803.11"/>
</g>
<!-- b_none -->
<g id="node20" class="node">
<title>b_none</title>
<polygon fill="none" stroke="black" points="736.02,-783 667.98,-783 667.98,-747 736.02,-747 736.02,-783"/>
<text xml:space="preserve" text-anchor="middle" x="702" y="-762.05" font-family="Microsoft YaHei" font-size="11.00">本轮结束</text>
</g>
<!-- b_has&#45;&gt;b_none -->
<g id="edge18" class="edge">
<title>b_has:e&#45;&gt;b_none:w</title>
<path fill="none" stroke="black" d="M638.32,-765C638.32,-765 659.47,-765 659.47,-765"/>
<polygon fill="black" stroke="black" points="659.47,-767.45 666.47,-765 659.47,-762.55 659.47,-767.45"/>
<text xml:space="preserve" text-anchor="middle" x="644.02" y="-769.75" font-family="Microsoft YaHei" font-size="10.00">否</text>
</g>
<!-- b_hold -->
<g id="node21" class="node">
<title>b_hold</title>
<polygon fill="none" stroke="black" points="600.77,-688.6 435.23,-688.6 435.23,-652.6 600.77,-652.6 600.77,-688.6"/>
<text xml:space="preserve" text-anchor="middle" x="518" y="-667.65" font-family="Microsoft YaHei" font-size="11.00">新增 WaitPilotChangeFOUP</text>
</g>
<!-- b_has&#45;&gt;b_hold -->
<g id="edge19" class="edge">
<title>b_has:s&#45;&gt;b_hold:n</title>
<path fill="none" stroke="black" d="M518,-735.4C518,-735.4 518,-697.11 518,-697.11"/>
<polygon fill="black" stroke="black" points="520.45,-697.11 518,-690.11 515.55,-697.11 520.45,-697.11"/>
<text xml:space="preserve" text-anchor="middle" x="513.12" y="-721.01" font-family="Microsoft YaHei" font-size="10.00">是</text>
</g>
<!-- b_transfer -->
<g id="node22" class="node">
<title>b_transfer</title>
<polygon fill="none" stroke="black" points="592.52,-605.6 443.48,-605.6 443.48,-569.6 592.52,-569.6 592.52,-605.6"/>
<text xml:space="preserve" text-anchor="middle" x="518" y="-584.65" font-family="Microsoft YaHei" font-size="11.00">AMA 执行 TransferFOUP</text>
</g>
<!-- b_hold&#45;&gt;b_transfer -->
<g id="edge20" class="edge">
<title>b_hold:s&#45;&gt;b_transfer:n</title>
<path fill="none" stroke="black" d="M518,-652.6C518,-652.6 518,-614.11 518,-614.11"/>
<polygon fill="black" stroke="black" points="520.45,-614.11 518,-607.11 515.55,-614.11 520.45,-614.11"/>
</g>
<!-- b_remove -->
<g id="node23" class="node">
<title>b_remove</title>
<polygon fill="none" stroke="black" points="582.39,-511.2 453.61,-511.2 453.61,-475.2 582.39,-475.2 582.39,-511.2"/>
<text xml:space="preserve" text-anchor="middle" x="518" y="-490.25" font-family="Microsoft YaHei" font-size="11.00">按站点与 Qtime 解除</text>
</g>
<!-- b_transfer&#45;&gt;b_remove -->
<g id="edge21" class="edge">
<title>b_transfer:s&#45;&gt;b_remove:n</title>
<path fill="none" stroke="black" d="M518,-569.6C518,-569.6 518,-519.71 518,-519.71"/>
<polygon fill="black" stroke="black" points="520.45,-519.71 518,-512.71 515.55,-519.71 520.45,-519.71"/>
</g>
<!-- b_end -->
<g id="node24" class="node">
<title>b_end</title>
<polygon fill="none" stroke="black" points="563.27,-416.8 472.73,-416.8 472.73,-380.8 563.27,-380.8 563.27,-416.8"/>
<text xml:space="preserve" text-anchor="middle" x="518" y="-395.85" font-family="Microsoft YaHei" font-size="11.00">本轮处理完成</text>
</g>
<!-- b_remove&#45;&gt;b_end -->
<g id="edge22" class="edge">
<title>b_remove:s&#45;&gt;b_end:n</title>
<path fill="none" stroke="black" d="M518,-475.2C518,-475.2 518,-425.31 518,-425.31"/>
<polygon fill="black" stroke="black" points="520.45,-425.31 518,-418.31 515.55,-425.31 520.45,-425.31"/>
</g>
</g>
</svg>
