<?xml version="1.0" encoding="UTF-8" standalone="no"?>
<!DOCTYPE svg PUBLIC "-//W3C//DTD SVG 1.1//EN"
 "http://www.w3.org/Graphics/SVG/1.1/DTD/svg11.dtd">
<!-- Generated by graphviz version 15.1.0 (20260618.0150)
 -->
<!-- Title: RTDPilotMode Pages: 1 -->
<svg width="464pt" height="1093pt"
 viewBox="0.00 0.00 464.00 1093.00" xmlns="http://www.w3.org/2000/svg" xmlns:xlink="http://www.w3.org/1999/xlink">
<g id="graph0" class="graph" transform="scale(1 1) rotate(0) translate(18 1075.4)">
<title>RTDPilotMode</title>
<polygon fill="white" stroke="none" points="-18,18 -18,-1075.4 446.18,-1075.4 446.18,18 -18,18"/>
<text xml:space="preserve" text-anchor="middle" x="214.09" y="-1039.15" font-family="Microsoft YaHei" font-size="15.00">RTD Pilot 模式与物理分批选片</text>
<!-- start -->
<g id="node1" class="node">
<title>start</title>
<polygon fill="none" stroke="black" points="195.06,-1028.4 59.52,-1028.4 59.52,-992.4 195.06,-992.4 195.06,-1028.4"/>
<text xml:space="preserve" text-anchor="middle" x="127.29" y="-1007.45" font-family="Microsoft YaHei" font-size="11.00">取得已选 Lot+Context</text>
</g>
<!-- whole_rule -->
<g id="node2" class="node">
<title>whole_rule</title>
<polygon fill="none" stroke="black" points="127.29,-944.4 25.5,-915 127.29,-885.6 229.08,-915 127.29,-944.4"/>
<text xml:space="preserve" text-anchor="middle" x="127.29" y="-912.05" font-family="Microsoft YaHei" font-size="11.00">需要物理分批？</text>
</g>
<!-- start&#45;&gt;whole_rule -->
<g id="edge1" class="edge">
<title>start:s&#45;&gt;whole_rule:n</title>
<path fill="none" stroke="black" d="M127.29,-992.4C127.29,-992.4 127.29,-953.12 127.29,-953.12"/>
<polygon fill="black" stroke="black" points="129.74,-953.12 127.29,-946.12 124.84,-953.12 129.74,-953.12"/>
</g>
<!-- whole -->
<g id="node3" class="node">
<title>whole</title>
<polygon fill="none" stroke="black" points="360.18,-933 264.39,-933 264.39,-897 360.18,-897 360.18,-933"/>
<text xml:space="preserve" text-anchor="middle" x="312.29" y="-912.05" font-family="Microsoft YaHei" font-size="11.00">IsNeedSplit=F</text>
</g>
<!-- whole_rule&#45;&gt;whole -->
<g id="edge2" class="edge">
<title>whole_rule:e&#45;&gt;whole:w</title>
<path fill="none" stroke="black" d="M230.82,-915C230.82,-915 255.88,-915 255.88,-915"/>
<polygon fill="black" stroke="black" points="255.88,-917.45 262.88,-915 255.88,-912.55 255.88,-917.45"/>
<text xml:space="preserve" text-anchor="middle" x="238.48" y="-919.75" font-family="Microsoft YaHei" font-size="10.00">否</text>
</g>
<!-- split -->
<g id="node5" class="node">
<title>split</title>
<polygon fill="none" stroke="black" points="175.19,-837.6 79.39,-837.6 79.39,-801.6 175.19,-801.6 175.19,-837.6"/>
<text xml:space="preserve" text-anchor="middle" x="127.29" y="-816.65" font-family="Microsoft YaHei" font-size="11.00">IsNeedSplit=T</text>
</g>
<!-- whole_rule&#45;&gt;split -->
<g id="edge4" class="edge">
<title>whole_rule:s&#45;&gt;split:n</title>
<path fill="none" stroke="black" d="M127.29,-885.39C127.29,-885.39 127.29,-846.11 127.29,-846.11"/>
<polygon fill="black" stroke="black" points="129.74,-846.11 127.29,-839.11 124.84,-846.11 129.74,-846.11"/>
<text xml:space="preserve" text-anchor="middle" x="122.41" y="-870.5" font-family="Microsoft YaHei" font-size="10.00">是</text>
</g>
<!-- whole_out -->
<g id="node4" class="node">
<title>whole_out</title>
<polygon fill="none" stroke="black" points="359.43,-837.6 265.14,-837.6 265.14,-801.6 359.43,-801.6 359.43,-837.6"/>
<text xml:space="preserve" text-anchor="middle" x="312.29" y="-816.65" font-family="Microsoft YaHei" font-size="11.00">整批设为 Pilot</text>
</g>
<!-- whole&#45;&gt;whole_out -->
<g id="edge3" class="edge">
<title>whole:s&#45;&gt;whole_out:n</title>
<path fill="none" stroke="black" d="M312.29,-897C312.29,-897 312.29,-846.11 312.29,-846.11"/>
<polygon fill="black" stroke="black" points="314.74,-846.11 312.29,-839.11 309.84,-846.11 314.74,-846.11"/>
</g>
<!-- read_cnt -->
<g id="node6" class="node">
<title>read_cnt</title>
<polygon fill="none" stroke="black" points="177.81,-753.6 76.77,-753.6 76.77,-717.6 177.81,-717.6 177.81,-753.6"/>
<text xml:space="preserve" text-anchor="middle" x="127.29" y="-732.65" font-family="Microsoft YaHei" font-size="11.00">读取 pi_splitcnt</text>
</g>
<!-- split&#45;&gt;read_cnt -->
<g id="edge5" class="edge">
<title>split:s&#45;&gt;read_cnt:n</title>
<path fill="none" stroke="black" d="M127.29,-801.6C127.29,-801.6 127.29,-762.11 127.29,-762.11"/>
<polygon fill="black" stroke="black" points="129.74,-762.11 127.29,-755.11 124.84,-762.11 129.74,-762.11"/>
</g>
<!-- resolve_cnt -->
<g id="node7" class="node">
<title>resolve_cnt</title>
<polygon fill="none" stroke="black" points="233.69,-669.6 20.89,-669.6 20.89,-633.6 233.69,-633.6 233.69,-669.6"/>
<text xml:space="preserve" text-anchor="middle" x="127.29" y="-648.65" font-family="Microsoft YaHei" font-size="11.00">确定分片数：有效用配置，否则默认 4</text>
</g>
<!-- read_cnt&#45;&gt;resolve_cnt -->
<g id="edge6" class="edge">
<title>read_cnt:s&#45;&gt;resolve_cnt:n</title>
<path fill="none" stroke="black" d="M127.29,-717.6C127.29,-717.6 127.29,-678.11 127.29,-678.11"/>
<polygon fill="black" stroke="black" points="129.74,-678.11 127.29,-671.11 124.84,-678.11 129.74,-678.11"/>
</g>
<!-- enough -->
<g id="node8" class="node">
<title>enough</title>
<polygon fill="none" stroke="black" points="127.29,-585.6 10.5,-556.2 127.29,-526.8 244.08,-556.2 127.29,-585.6"/>
<text xml:space="preserve" text-anchor="middle" x="127.29" y="-553.25" font-family="Microsoft YaHei" font-size="11.00">可用 Wafer 足够？</text>
</g>
<!-- resolve_cnt&#45;&gt;enough -->
<g id="edge7" class="edge">
<title>resolve_cnt:s&#45;&gt;enough:n</title>
<path fill="none" stroke="black" d="M127.29,-633.6C127.29,-633.6 127.29,-594.29 127.29,-594.29"/>
<polygon fill="black" stroke="black" points="129.74,-594.29 127.29,-587.29 124.84,-594.29 129.74,-594.29"/>
</g>
<!-- fallback_whole -->
<g id="node9" class="node">
<title>fallback_whole</title>
<polygon fill="none" stroke="black" points="375.18,-574.2 279.39,-574.2 279.39,-538.2 375.18,-538.2 375.18,-574.2"/>
<text xml:space="preserve" text-anchor="middle" x="327.29" y="-553.25" font-family="Microsoft YaHei" font-size="11.00">IsNeedSplit=F</text>
</g>
<!-- enough&#45;&gt;fallback_whole -->
<g id="edge8" class="edge">
<title>enough:e&#45;&gt;fallback_whole:w</title>
<path fill="none" stroke="black" d="M246.08,-556C246.08,-556 270.88,-556 270.88,-556"/>
<polygon fill="black" stroke="black" points="270.88,-558.45 277.88,-556 270.88,-553.55 270.88,-558.45"/>
<text xml:space="preserve" text-anchor="middle" x="253.61" y="-560.75" font-family="Microsoft YaHei" font-size="10.00">否</text>
</g>
<!-- group -->
<g id="node11" class="node">
<title>group</title>
<polygon fill="none" stroke="black" points="195.81,-478.8 58.77,-478.8 58.77,-442.8 195.81,-442.8 195.81,-478.8"/>
<text xml:space="preserve" text-anchor="middle" x="127.29" y="-457.85" font-family="Microsoft YaHei" font-size="11.00">建立 Group/SubGroup</text>
</g>
<!-- enough&#45;&gt;group -->
<g id="edge10" class="edge">
<title>enough:s&#45;&gt;group:n</title>
<path fill="none" stroke="black" d="M127.29,-526.62C127.29,-526.62 127.29,-487.31 127.29,-487.31"/>
<polygon fill="black" stroke="black" points="129.74,-487.31 127.29,-480.31 124.84,-487.31 129.74,-487.31"/>
<text xml:space="preserve" text-anchor="middle" x="122.41" y="-511.72" font-family="Microsoft YaHei" font-size="10.00">是</text>
</g>
<!-- fallback_out -->
<g id="node10" class="node">
<title>fallback_out</title>
<polygon fill="none" stroke="black" points="408.56,-478.8 246.02,-478.8 246.02,-442.8 408.56,-442.8 408.56,-478.8"/>
<text xml:space="preserve" text-anchor="middle" x="327.29" y="-457.85" font-family="Microsoft YaHei" font-size="11.00">Wafer 不足，整批设为 Pilot</text>
</g>
<!-- fallback_whole&#45;&gt;fallback_out -->
<g id="edge9" class="edge">
<title>fallback_whole:s&#45;&gt;fallback_out:n</title>
<path fill="none" stroke="black" d="M327.29,-538.2C327.29,-538.2 327.29,-487.31 327.29,-487.31"/>
<polygon fill="black" stroke="black" points="329.74,-487.31 327.29,-480.31 324.84,-487.31 329.74,-487.31"/>
</g>
<!-- rank -->
<g id="node12" class="node">
<title>rank</title>
<polygon fill="none" stroke="black" points="211.94,-394.8 42.64,-394.8 42.64,-358.8 211.94,-358.8 211.94,-394.8"/>
<text xml:space="preserve" text-anchor="middle" x="127.29" y="-373.85" font-family="Microsoft YaHei" font-size="11.00">计算 GroupRank/WaferRank</text>
</g>
<!-- group&#45;&gt;rank -->
<g id="edge11" class="edge">
<title>group:s&#45;&gt;rank:n</title>
<path fill="none" stroke="black" d="M127.29,-442.8C127.29,-442.8 127.29,-403.31 127.29,-403.31"/>
<polygon fill="black" stroke="black" points="129.74,-403.31 127.29,-396.31 124.84,-403.31 129.74,-403.31"/>
</g>
<!-- choose -->
<g id="node13" class="node">
<title>choose</title>
<polygon fill="none" stroke="black" points="184.19,-310.8 70.39,-310.8 70.39,-274.8 184.19,-274.8 184.19,-310.8"/>
<text xml:space="preserve" text-anchor="middle" x="127.29" y="-289.85" font-family="Microsoft YaHei" font-size="11.00">按排序选择 Wafer</text>
</g>
<!-- rank&#45;&gt;choose -->
<g id="edge12" class="edge">
<title>rank:s&#45;&gt;choose:n</title>
<path fill="none" stroke="black" d="M127.29,-358.8C127.29,-358.8 127.29,-319.31 127.29,-319.31"/>
<polygon fill="black" stroke="black" points="129.74,-319.31 127.29,-312.31 124.84,-319.31 129.74,-319.31"/>
</g>
<!-- adi -->
<g id="node14" class="node">
<title>adi</title>
<polygon fill="none" stroke="black" points="127.29,-226.8 0,-197.4 127.29,-168 254.58,-197.4 127.29,-226.8"/>
<text xml:space="preserve" text-anchor="middle" x="127.29" y="-194.45" font-family="Microsoft YaHei" font-size="11.00">存在非 SRC 的 ADI？</text>
</g>
<!-- choose&#45;&gt;adi -->
<g id="edge13" class="edge">
<title>choose:s&#45;&gt;adi:n</title>
<path fill="none" stroke="black" d="M127.29,-274.8C127.29,-274.8 127.29,-235.49 127.29,-235.49"/>
<polygon fill="black" stroke="black" points="129.74,-235.49 127.29,-228.49 124.84,-235.49 129.74,-235.49"/>
</g>
<!-- first_adi -->
<g id="node15" class="node">
<title>first_adi</title>
<polygon fill="none" stroke="black" points="186.06,-120 68.52,-120 68.52,-84 186.06,-84 186.06,-120"/>
<text xml:space="preserve" text-anchor="middle" x="127.29" y="-99.05" font-family="Microsoft YaHei" font-size="11.00">首道 ADI 为 Merge</text>
</g>
<!-- adi&#45;&gt;first_adi -->
<g id="edge14" class="edge">
<title>adi:s&#45;&gt;first_adi:n</title>
<path fill="none" stroke="black" d="M127.29,-167.82C127.29,-167.82 127.29,-128.51 127.29,-128.51"/>
<polygon fill="black" stroke="black" points="129.74,-128.51 127.29,-121.51 124.84,-128.51 129.74,-128.51"/>
<text xml:space="preserve" text-anchor="middle" x="122.41" y="-152.92" font-family="Microsoft YaHei" font-size="10.00">是</text>
</g>
<!-- last_cd -->
<g id="node16" class="node">
<title>last_cd</title>
<polygon fill="none" stroke="black" points="404.56,-215.4 290.02,-215.4 290.02,-179.4 404.56,-179.4 404.56,-215.4"/>
<text xml:space="preserve" text-anchor="middle" x="347.29" y="-194.45" font-family="Microsoft YaHei" font-size="11.00">末道 CD 为 Merge</text>
</g>
<!-- adi&#45;&gt;last_cd -->
<g id="edge15" class="edge">
<title>adi:e&#45;&gt;last_cd:w</title>
<path fill="none" stroke="black" d="M256.76,-197C256.76,-197 281.51,-197 281.51,-197"/>
<polygon fill="black" stroke="black" points="281.51,-199.45 288.51,-197 281.51,-194.55 281.51,-199.45"/>
<text xml:space="preserve" text-anchor="middle" x="264.26" y="-201.75" font-family="Microsoft YaHei" font-size="10.00">否</text>
</g>
<!-- output_adi -->
<g id="node17" class="node">
<title>output_adi</title>
<polygon fill="none" stroke="black" points="209.69,-36 44.89,-36 44.89,0 209.69,0 209.69,-36"/>
<text xml:space="preserve" text-anchor="middle" x="127.29" y="-15.05" font-family="Microsoft YaHei" font-size="11.00">按首道 ADI 输出分批 Report</text>
</g>
<!-- first_adi&#45;&gt;output_adi -->
<g id="edge16" class="edge">
<title>first_adi:s&#45;&gt;output_adi:n</title>
<path fill="none" stroke="black" d="M127.29,-84C127.29,-84 127.29,-44.51 127.29,-44.51"/>
<polygon fill="black" stroke="black" points="129.74,-44.51 127.29,-37.51 124.84,-44.51 129.74,-44.51"/>
</g>
<!-- output_cd -->
<g id="node18" class="node">
<title>output_cd</title>
<polygon fill="none" stroke="black" points="428.18,-120 266.39,-120 266.39,-84 428.18,-84 428.18,-120"/>
<text xml:space="preserve" text-anchor="middle" x="347.29" y="-99.05" font-family="Microsoft YaHei" font-size="11.00">按末道 CD 输出分批 Report</text>
</g>
<!-- last_cd&#45;&gt;output_cd -->
<g id="edge17" class="edge">
<title>last_cd:s&#45;&gt;output_cd:n</title>
<path fill="none" stroke="black" d="M347.29,-179.4C347.29,-179.4 347.29,-128.51 347.29,-128.51"/>
<polygon fill="black" stroke="black" points="349.74,-128.51 347.29,-121.51 344.84,-128.51 349.74,-128.51"/>
</g>
</g>
</svg>
