<?xml version="1.0" encoding="UTF-8" standalone="no"?>
<!DOCTYPE svg PUBLIC "-//W3C//DTD SVG 1.1//EN"
 "http://www.w3.org/Graphics/SVG/1.1/DTD/svg11.dtd">
<!-- Generated by graphviz version 15.1.0 (20260618.0150)
 -->
<!-- Title: AMAPhysicalSplit Pages: 1 -->
<svg width="533pt" height="1127pt"
 viewBox="0.00 0.00 533.00 1127.00" xmlns="http://www.w3.org/2000/svg" xmlns:xlink="http://www.w3.org/1999/xlink">
<g id="graph0" class="graph" transform="scale(1 1) rotate(0) translate(18 1109.2)">
<title>AMAPhysicalSplit</title>
<polygon fill="white" stroke="none" points="-18,18 -18,-1109.2 514.93,-1109.2 514.93,18 -18,18"/>
<text xml:space="preserve" text-anchor="middle" x="248.47" y="-1072.95" font-family="Microsoft YaHei" font-size="15.00">AMA Pilot 物理分批执行与回退</text>
<!-- start -->
<g id="node1" class="node">
<title>start</title>
<polygon fill="none" stroke="black" points="162.06,-1062.2 52.02,-1062.2 52.02,-1026.2 162.06,-1026.2 162.06,-1062.2"/>
<text xml:space="preserve" text-anchor="middle" x="107.04" y="-1041.25" font-family="Microsoft YaHei" font-size="11.00">读取 Pilot Report</text>
</g>
<!-- split -->
<g id="node2" class="node">
<title>split</title>
<polygon fill="none" stroke="black" points="107.04,-977.2 0,-947.8 107.04,-918.4 214.08,-947.8 107.04,-977.2"/>
<text xml:space="preserve" text-anchor="middle" x="107.04" y="-944.85" font-family="Microsoft YaHei" font-size="11.00">IsNeedSplit=T？</text>
</g>
<!-- start&#45;&gt;split -->
<g id="edge1" class="edge">
<title>start&#45;&gt;split</title>
<path fill="none" stroke="black" d="M107.04,-1026.07C107.04,-1026.07 107.04,-986.11 107.04,-986.11"/>
<polygon fill="black" stroke="black" points="109.49,-986.11 107.04,-979.11 104.59,-986.11 109.49,-986.11"/>
</g>
<!-- whole -->
<g id="node3" class="node">
<title>whole</title>
<polygon fill="none" stroke="black" points="168.69,-121 53.39,-121 53.39,-85 168.69,-85 168.69,-121"/>
<text xml:space="preserve" text-anchor="middle" x="111.04" y="-100.05" font-family="Microsoft YaHei" font-size="11.00">整批 Lot 传给 R2R</text>
</g>
<!-- split&#45;&gt;whole -->
<g id="edge2" class="edge">
<title>split&#45;&gt;whole</title>
<path fill="none" stroke="black" d="M82.57,-924.77C82.57,-924.77 82.57,-130 82.57,-130"/>
<polygon fill="black" stroke="black" points="85.02,-130 82.57,-123 80.12,-130 85.02,-130"/>
<text xml:space="preserve" text-anchor="middle" x="77.7" y="-532.13" font-family="Microsoft YaHei" font-size="10.00">否</text>
</g>
<!-- review -->
<g id="node5" class="node">
<title>review</title>
<polygon fill="none" stroke="black" points="241.31,-869.4 150.77,-869.4 150.77,-833.4 241.31,-833.4 241.31,-869.4"/>
<text xml:space="preserve" text-anchor="middle" x="196.04" y="-848.45" font-family="Microsoft YaHei" font-size="11.00">执行六项复核</text>
</g>
<!-- split&#45;&gt;review -->
<g id="edge4" class="edge">
<title>split&#45;&gt;review</title>
<path fill="none" stroke="black" d="M182.42,-938.9C182.42,-938.9 182.42,-878.27 182.42,-878.27"/>
<polygon fill="black" stroke="black" points="184.88,-878.27 182.43,-871.27 179.98,-878.27 184.88,-878.27"/>
<text xml:space="preserve" text-anchor="middle" x="177.55" y="-899.09" font-family="Microsoft YaHei" font-size="10.00">是</text>
</g>
<!-- whole_end -->
<g id="node4" class="node">
<title>whole_end</title>
<polygon fill="none" stroke="black" points="159.69,-36 62.39,-36 62.39,0 159.69,0 159.69,-36"/>
<text xml:space="preserve" text-anchor="middle" x="111.04" y="-15.05" font-family="Microsoft YaHei" font-size="11.00">整批 Pilot 完成</text>
</g>
<!-- whole&#45;&gt;whole_end -->
<g id="edge3" class="edge">
<title>whole&#45;&gt;whole_end</title>
<path fill="none" stroke="black" d="M111.04,-84.56C111.04,-84.56 111.04,-44.92 111.04,-44.92"/>
<polygon fill="black" stroke="black" points="113.49,-44.92 111.04,-37.92 108.59,-44.92 113.49,-44.92"/>
</g>
<!-- review_ok -->
<g id="node6" class="node">
<title>review_ok</title>
<polygon fill="none" stroke="black" points="236.04,-784.4 111.75,-755 236.04,-725.6 360.33,-755 236.04,-784.4"/>
<text xml:space="preserve" text-anchor="middle" x="236.04" y="-752.05" font-family="Microsoft YaHei" font-size="11.00">六项复核全部通过？</text>
</g>
<!-- review&#45;&gt;review_ok -->
<g id="edge5" class="edge">
<title>review&#45;&gt;review_ok</title>
<path fill="none" stroke="black" d="M196.04,-833.27C196.04,-833.27 196.04,-783.9 196.04,-783.9"/>
<polygon fill="black" stroke="black" points="198.49,-783.9 196.04,-776.9 193.59,-783.9 198.49,-783.9"/>
</g>
<!-- stop -->
<g id="node7" class="node">
<title>stop</title>
<polygon fill="none" stroke="black" points="483.18,-676.6 358.89,-676.6 358.89,-640.6 483.18,-640.6 483.18,-676.6"/>
<text xml:space="preserve" text-anchor="middle" x="421.04" y="-655.65" font-family="Microsoft YaHei" font-size="11.00">停止并记录失败原因</text>
</g>
<!-- review_ok&#45;&gt;stop -->
<g id="edge6" class="edge">
<title>review_ok&#45;&gt;stop</title>
<path fill="none" stroke="black" d="M328.35,-747.14C328.35,-724.22 328.35,-659 328.35,-659 328.35,-659 349.93,-659 349.93,-659"/>
<polygon fill="black" stroke="black" points="349.93,-661.45 356.93,-659 349.93,-656.55 349.93,-661.45"/>
<text xml:space="preserve" text-anchor="middle" x="323.48" y="-697.03" font-family="Microsoft YaHei" font-size="10.00">否</text>
</g>
<!-- reserve -->
<g id="node9" class="node">
<title>reserve</title>
<polygon fill="none" stroke="black" points="297.81,-676.6 174.27,-676.6 174.27,-640.6 297.81,-640.6 297.81,-676.6"/>
<text xml:space="preserve" text-anchor="middle" x="236.04" y="-655.65" font-family="Microsoft YaHei" font-size="11.00">获取并预占空 FOUP</text>
</g>
<!-- review_ok&#45;&gt;reserve -->
<g id="edge8" class="edge">
<title>review_ok&#45;&gt;reserve</title>
<path fill="none" stroke="black" d="M236.04,-725.29C236.04,-725.29 236.04,-685.38 236.04,-685.38"/>
<polygon fill="black" stroke="black" points="238.49,-685.38 236.04,-678.38 233.59,-685.38 238.49,-685.38"/>
<text xml:space="preserve" text-anchor="middle" x="231.16" y="-710.08" font-family="Microsoft YaHei" font-size="10.00">是</text>
</g>
<!-- wait -->
<g id="node8" class="node">
<title>wait</title>
<polygon fill="none" stroke="black" points="496.93,-580.2 395.14,-580.2 395.14,-544.2 496.93,-544.2 496.93,-580.2"/>
<text xml:space="preserve" text-anchor="middle" x="446.04" y="-559.25" font-family="Microsoft YaHei" font-size="11.00">等待下一轮重算</text>
</g>
<!-- stop&#45;&gt;wait -->
<g id="edge7" class="edge">
<title>stop&#45;&gt;wait</title>
<path fill="none" stroke="black" d="M439.16,-640.47C439.16,-640.47 439.16,-589.09 439.16,-589.09"/>
<polygon fill="black" stroke="black" points="441.62,-589.09 439.17,-582.09 436.72,-589.09 441.62,-589.09"/>
</g>
<!-- reserve_ok -->
<g id="node10" class="node">
<title>reserve_ok</title>
<polygon fill="none" stroke="black" points="236.04,-591.6 112.5,-562.2 236.04,-532.8 359.58,-562.2 236.04,-591.6"/>
<text xml:space="preserve" text-anchor="middle" x="236.04" y="-559.25" font-family="Microsoft YaHei" font-size="11.00">成功取得空 FOUP？</text>
</g>
<!-- reserve&#45;&gt;reserve_ok -->
<g id="edge9" class="edge">
<title>reserve&#45;&gt;reserve_ok</title>
<path fill="none" stroke="black" d="M236.04,-640.47C236.04,-640.47 236.04,-600.51 236.04,-600.51"/>
<polygon fill="black" stroke="black" points="238.49,-600.51 236.04,-593.51 233.59,-600.51 238.49,-600.51"/>
</g>
<!-- mes -->
<g id="node11" class="node">
<title>mes</title>
<polygon fill="none" stroke="black" points="343.56,-483.8 224.52,-483.8 224.52,-447.8 343.56,-447.8 343.56,-483.8"/>
<text xml:space="preserve" text-anchor="middle" x="284.04" y="-462.85" font-family="Microsoft YaHei" font-size="11.00">调用 MES 物理分批</text>
</g>
<!-- reserve_ok&#45;&gt;mes -->
<g id="edge11" class="edge">
<title>reserve_ok&#45;&gt;mes</title>
<path fill="none" stroke="black" d="M284.04,-544.07C284.04,-544.07 284.04,-492.69 284.04,-492.69"/>
<polygon fill="black" stroke="black" points="286.49,-492.69 284.04,-485.69 281.59,-492.69 286.49,-492.69"/>
<text xml:space="preserve" text-anchor="middle" x="279.16" y="-523.13" font-family="Microsoft YaHei" font-size="10.00">是</text>
</g>
<!-- fallback -->
<g id="node14" class="node">
<title>fallback</title>
<polygon fill="none" stroke="black" points="217.81,-206 112.27,-206 112.27,-170 217.81,-170 217.81,-206"/>
<text xml:space="preserve" text-anchor="middle" x="165.04" y="-185.05" font-family="Microsoft YaHei" font-size="11.00">回退为整批 Pilot</text>
</g>
<!-- reserve_ok&#45;&gt;fallback -->
<g id="edge10" class="edge">
<title>reserve_ok&#45;&gt;fallback</title>
<path fill="none" stroke="black" d="M157.88,-551C157.88,-551 157.88,-214.63 157.88,-214.63"/>
<polygon fill="black" stroke="black" points="160.33,-214.63 157.88,-207.63 155.43,-214.63 160.33,-214.63"/>
<text xml:space="preserve" text-anchor="middle" x="153" y="-387.57" font-family="Microsoft YaHei" font-size="10.00">否</text>
</g>
<!-- mes_ok -->
<g id="node12" class="node">
<title>mes_ok</title>
<polygon fill="none" stroke="black" points="305.04,-398.8 203.25,-369.4 305.04,-340 406.83,-369.4 305.04,-398.8"/>
<text xml:space="preserve" text-anchor="middle" x="305.04" y="-366.45" font-family="Microsoft YaHei" font-size="11.00">分批接口成功？</text>
</g>
<!-- mes&#45;&gt;mes_ok -->
<g id="edge12" class="edge">
<title>mes&#45;&gt;mes_ok</title>
<path fill="none" stroke="black" d="M284.04,-447.67C284.04,-447.67 284.04,-401.44 284.04,-401.44"/>
<polygon fill="black" stroke="black" points="286.49,-401.44 284.04,-394.44 281.59,-401.44 286.49,-401.44"/>
</g>
<!-- release -->
<g id="node13" class="node">
<title>release</title>
<polygon fill="none" stroke="black" points="304.56,-291 203.52,-291 203.52,-255 304.56,-255 304.56,-291"/>
<text xml:space="preserve" text-anchor="middle" x="254.04" y="-270.05" font-family="Microsoft YaHei" font-size="11.00">释放预占 FOUP</text>
</g>
<!-- mes_ok&#45;&gt;release -->
<g id="edge13" class="edge">
<title>mes_ok&#45;&gt;release</title>
<path fill="none" stroke="black" d="M254.04,-354.34C254.04,-354.34 254.04,-299.76 254.04,-299.76"/>
<polygon fill="black" stroke="black" points="256.49,-299.76 254.04,-292.76 251.59,-299.76 256.49,-299.76"/>
<text xml:space="preserve" text-anchor="middle" x="249.16" y="-317.55" font-family="Microsoft YaHei" font-size="10.00">否</text>
</g>
<!-- child -->
<g id="node15" class="node">
<title>child</title>
<polygon fill="none" stroke="black" points="469.06,-291 341.02,-291 341.02,-255 469.06,-255 469.06,-291"/>
<text xml:space="preserve" text-anchor="middle" x="405.04" y="-270.05" font-family="Microsoft YaHei" font-size="11.00">生成子批并设为 Pilot</text>
</g>
<!-- mes_ok&#45;&gt;child -->
<g id="edge16" class="edge">
<title>mes_ok&#45;&gt;child</title>
<path fill="none" stroke="black" d="M373.92,-359.45C373.92,-359.45 373.92,-299.77 373.92,-299.77"/>
<polygon fill="black" stroke="black" points="376.38,-299.77 373.93,-292.77 371.48,-299.77 376.38,-299.77"/>
<text xml:space="preserve" text-anchor="middle" x="369.05" y="-320.11" font-family="Microsoft YaHei" font-size="10.00">是</text>
</g>
<!-- release&#45;&gt;fallback -->
<g id="edge14" class="edge">
<title>release&#45;&gt;fallback</title>
<path fill="none" stroke="black" d="M210.66,-254.56C210.66,-254.56 210.66,-214.92 210.66,-214.92"/>
<polygon fill="black" stroke="black" points="213.12,-214.92 210.67,-207.92 208.22,-214.92 213.12,-214.92"/>
</g>
<!-- fallback&#45;&gt;whole -->
<g id="edge15" class="edge">
<title>fallback&#45;&gt;whole</title>
<path fill="none" stroke="black" d="M140.48,-169.56C140.48,-169.56 140.48,-129.92 140.48,-129.92"/>
<polygon fill="black" stroke="black" points="142.93,-129.92 140.48,-122.92 138.03,-129.92 142.93,-129.92"/>
</g>
<!-- send -->
<g id="node16" class="node">
<title>send</title>
<polygon fill="none" stroke="black" points="451.43,-206 358.64,-206 358.64,-170 451.43,-170 451.43,-206"/>
<text xml:space="preserve" text-anchor="middle" x="405.04" y="-185.05" font-family="Microsoft YaHei" font-size="11.00">子批传给 R2R</text>
</g>
<!-- child&#45;&gt;send -->
<g id="edge17" class="edge">
<title>child&#45;&gt;send</title>
<path fill="none" stroke="black" d="M405.04,-254.56C405.04,-254.56 405.04,-214.92 405.04,-214.92"/>
<polygon fill="black" stroke="black" points="407.49,-214.92 405.04,-207.92 402.59,-214.92 407.49,-214.92"/>
</g>
<!-- transfer -->
<g id="node17" class="node">
<title>transfer</title>
<polygon fill="none" stroke="black" points="483.68,-121 326.39,-121 326.39,-85 483.68,-85 483.68,-121"/>
<text xml:space="preserve" text-anchor="middle" x="405.04" y="-100.05" font-family="Microsoft YaHei" font-size="11.00">按现有顺序 Transfer FOUP</text>
</g>
<!-- send&#45;&gt;transfer -->
<g id="edge18" class="edge">
<title>send&#45;&gt;transfer</title>
<path fill="none" stroke="black" d="M405.04,-169.56C405.04,-169.56 405.04,-129.92 405.04,-129.92"/>
<polygon fill="black" stroke="black" points="407.49,-129.92 405.04,-122.92 402.59,-129.92 407.49,-129.92"/>
</g>
<!-- end -->
<g id="node18" class="node">
<title>end</title>
<polygon fill="none" stroke="black" points="450.31,-36 359.77,-36 359.77,0 450.31,0 450.31,-36"/>
<text xml:space="preserve" text-anchor="middle" x="405.04" y="-15.05" font-family="Microsoft YaHei" font-size="11.00">物理分批完成</text>
</g>
<!-- transfer&#45;&gt;end -->
<g id="edge19" class="edge">
<title>transfer&#45;&gt;end</title>
<path fill="none" stroke="black" d="M405.04,-84.56C405.04,-84.56 405.04,-44.92 405.04,-44.92"/>
<polygon fill="black" stroke="black" points="407.49,-44.92 405.04,-37.92 402.59,-44.92 407.49,-44.92"/>
</g>
</g>
</svg>
